# xmcd CD database file
#
# Track frame offsets:
#	150
#	18365
#	37503
#	55308
#	72552
#	89647
#	109832
#	128309
#	145379
#	164246
#	179933
#	199025
#	216439
#	233784
#
# Disc length: 3213 seconds
#
# Revision: 0
# Processed by: cddbd v1.5.2PL0 Copyright (c) Steve Scherf et al.
# Submitted via: CDex 1.51
#
DISCID=d30c8b0e
DTITLE=Black Heaven - Kunstwerk CD1
DYEAR=2007
DGENRE=New Age
TTITLE0=Schwarzes Loch
TTITLE1=Babylon
TTITLE2=Durch leere Strassen
TTITLE3=Kein Zurück
TTITLE4=Dieser Weg
TTITLE5=Zweite Sonne
TTITLE6=Kunstwerk
TTITLE7=Zentrum
TTITLE8=Aus Gold
TTITLE9=Gebete an Gott
TTITLE10=Tansania
TTITLE11=Ein Dämon
TTITLE12=Aus der Stille
TTITLE13=Epilog
EXTD=YEAR: 2007
EXTT0=
EXTT1=
EXTT2=
EXTT3=
EXTT4=
EXTT5=
EXTT6=
EXTT7=
EXTT8=
EXTT9=
EXTT10=
EXTT11=
EXTT12=
EXTT13=
PLAYORDER=
